<svg xmlns="http://www.w3.org/2000/svg" viewBox="0 0 900 1420" font-family="Helvetica, Arial, sans-serif" font-size="12">
  <defs>
    <marker id="a" markerWidth="7" markerHeight="5" refX="7" refY="2.5" orient="auto">
      <polygon points="0 0,7 2.5,0 5" fill="#555"/>
    </marker>
  </defs>

  <rect width="900" height="1420" fill="#fff"/>

  <!-- Title -->
  <text x="450" y="30" text-anchor="middle" font-size="18" font-weight="bold" fill="#222">Context Optimizer Architecture</text>
  <text x="450" y="48" text-anchor="middle" font-size="11" fill="#888">Analogous to SQL Query Optimizer</text>

  <!-- ═══ User App ═══ -->
  <rect x="300" y="68" width="300" height="40" rx="3" fill="#f5f5f5" stroke="#aaa"/>
  <text x="450" y="93" text-anchor="middle" font-weight="bold" fill="#333">User Application</text>

  <line x1="450" y1="108" x2="450" y2="138" stroke="#555" stroke-width="1.5" marker-end="url(#a)"/>

  <!-- ═══ Integration Layer ═══ -->
  <rect x="40" y="138" width="820" height="90" rx="3" fill="none" stroke="#4A90D9" stroke-width="2"/>
  <text x="55" y="157" font-weight="bold" fill="#4A90D9" font-size="11">INTEGRATION LAYER</text>
  <text x="845" y="157" text-anchor="end" fill="#999" font-size="10">pick one — Phase 2</text>

  <rect x="55"  y="168" width="185" height="48" rx="2" fill="#EBF3FB" stroke="#4A90D9"/>
  <text x="147" y="187" text-anchor="middle" font-weight="bold" font-size="11" fill="#333">L0: HTTP Proxy</text>
  <text x="147" y="201" text-anchor="middle" font-size="10" fill="#666">cp serve --backend ...</text>

  <rect x="255" y="168" width="185" height="48" rx="2" fill="#EBF3FB" stroke="#4A90D9"/>
  <text x="347" y="187" text-anchor="middle" font-weight="bold" font-size="11" fill="#333">L1: Client Wrapper</text>
  <text x="347" y="201" text-anchor="middle" font-size="10" fill="#666">cp.openai.Client()</text>

  <rect x="455" y="168" width="185" height="48" rx="2" fill="#EBF3FB" stroke="#4A90D9"/>
  <text x="547" y="187" text-anchor="middle" font-weight="bold" font-size="11" fill="#333">L2: SDK Direct</text>
  <text x="547" y="201" text-anchor="middle" font-size="10" fill="#666">cp.optimize(msgs)</text>

  <rect x="655" y="168" width="185" height="48" rx="2" fill="#EBF3FB" stroke="#4A90D9"/>
  <text x="747" y="187" text-anchor="middle" font-weight="bold" font-size="11" fill="#333">L3: Engine Hook</text>
  <text x="747" y="201" text-anchor="middle" font-size="10" fill="#666">sglang / vllm auto</text>

  <line x1="450" y1="228" x2="450" y2="258" stroke="#555" stroke-width="1.5" marker-end="url(#a)"/>

  <!-- ═══ _compat.py Bridge ═══ -->
  <rect x="40" y="237" width="820" height="18" rx="2" fill="#FEF2F2" stroke="#EF4444" stroke-dasharray="4 2"/>
  <text x="450" y="250" text-anchor="middle" font-size="9" fill="#DC2626">_compat.py — old import paths forwarded here (Phase 0)</text>

  <!-- ═══ Optimizer Core ═══ -->
  <rect x="40" y="258" width="820" height="530" rx="3" fill="none" stroke="#7B61FF" stroke-width="2"/>
  <text x="55" y="277" font-weight="bold" fill="#7B61FF" font-size="11">CONTEXT OPTIMIZER CORE</text>
  <text x="845" y="277" text-anchor="end" fill="#999" font-size="10">optimizer/ — Phase 1</text>

  <!-- Pipeline: 4 boxes -->
  <rect x="55"  y="292" width="180" height="60" rx="2" fill="#F3F0FF" stroke="#7B61FF"/>
  <text x="145" y="313" text-anchor="middle" font-weight="bold" fill="#333">1. PARSER</text>
  <text x="145" y="327" text-anchor="middle" font-size="10" fill="#666">Prompt → BlockTree</text>
  <text x="145" y="341" text-anchor="middle" font-size="10" fill="#999">&lt;5ms</text>

  <line x1="235" y1="322" x2="255" y2="322" stroke="#7B61FF" stroke-width="1.5" marker-end="url(#a)"/>

  <rect x="260" y="292" width="180" height="60" rx="2" fill="#F3F0FF" stroke="#7B61FF"/>
  <text x="350" y="313" text-anchor="middle" font-weight="bold" fill="#333">2. ANALYZER</text>
  <text x="350" y="327" text-anchor="middle" font-size="10" fill="#666">Usage stats lookup</text>
  <text x="350" y="341" text-anchor="middle" font-size="10" fill="#999">&lt;1ms</text>

  <line x1="440" y1="322" x2="460" y2="322" stroke="#7B61FF" stroke-width="1.5" marker-end="url(#a)"/>

  <rect x="465" y="292" width="180" height="60" rx="2" fill="#F3F0FF" stroke="#7B61FF"/>
  <text x="555" y="313" text-anchor="middle" font-weight="bold" fill="#333">3. PLANNER</text>
  <text x="555" y="327" text-anchor="middle" font-size="10" fill="#666">Select rules → Plan</text>
  <text x="555" y="341" text-anchor="middle" font-size="10" fill="#999">&lt;2ms</text>

  <line x1="645" y1="322" x2="665" y2="322" stroke="#7B61FF" stroke-width="1.5" marker-end="url(#a)"/>

  <rect x="670" y="292" width="180" height="60" rx="2" fill="#F3F0FF" stroke="#7B61FF"/>
  <text x="760" y="313" text-anchor="middle" font-weight="bold" fill="#333">4. EXECUTOR</text>
  <text x="760" y="327" text-anchor="middle" font-size="10" fill="#666">Apply → Optimized</text>
  <text x="760" y="341" text-anchor="middle" font-size="10" fill="#999">&lt;5ms</text>

  <!-- Dashed lines down from pipeline to supporting -->
  <line x1="145" y1="352" x2="145" y2="385" stroke="#bbb" stroke-width="1" stroke-dasharray="4 3"/>
  <line x1="350" y1="352" x2="350" y2="385" stroke="#bbb" stroke-width="1" stroke-dasharray="4 3"/>
  <line x1="660" y1="352" x2="660" y2="385" stroke="#bbb" stroke-width="1" stroke-dasharray="4 3"/>

  <!-- Supporting: Catalog -->
  <rect x="55" y="385" width="230" height="130" rx="2" fill="#FFFBEB" stroke="#D97706"/>
  <text x="170" y="404" text-anchor="middle" font-weight="bold" fill="#92400E">CATALOG</text>
  <line x1="65" y1="412" x2="275" y2="412" stroke="#FCD34D" stroke-width="0.5"/>
  <text x="70" y="428" font-size="10" fill="#555">Skill Registry</text>
  <text x="70" y="442" font-size="10" fill="#888">  scan dirs, keyword index</text>
  <text x="70" y="458" font-size="10" fill="#555">Usage Statistics</text>
  <text x="70" y="472" font-size="10" fill="#888">  freq, recency, co-occurrence</text>
  <text x="70" y="488" font-size="10" fill="#555">Block Registry</text>
  <text x="70" y="502" font-size="10" fill="#888">  hash, section decomposition</text>

  <!-- Supporting: Cost Model -->
  <rect x="300" y="385" width="230" height="130" rx="2" fill="#FFFBEB" stroke="#D97706"/>
  <text x="415" y="404" text-anchor="middle" font-weight="bold" fill="#92400E">COST MODEL</text>
  <line x1="310" y1="412" x2="520" y2="412" stroke="#FCD34D" stroke-width="0.5"/>
  <text x="315" y="428" font-size="10" fill="#555">Token Estimation</text>
  <text x="315" y="442" font-size="10" fill="#888">  chars/4 heuristic</text>
  <text x="315" y="458" font-size="10" fill="#555">Cache Benefit</text>
  <text x="315" y="472" font-size="10" fill="#888">  prefix_shared_tokens</text>
  <text x="315" y="488" font-size="10" fill="#555">Risk Assessment</text>
  <text x="315" y="502" font-size="10" fill="#888">  prefetch_miss_rate</text>

  <!-- Supporting: Rewrite Rules -->
  <rect x="545" y="385" width="305" height="130" rx="2" fill="#FFFBEB" stroke="#D97706"/>
  <text x="697" y="404" text-anchor="middle" font-weight="bold" fill="#92400E">REWRITE RULES (Pluggable)</text>
  <line x1="555" y1="412" x2="840" y2="412" stroke="#FCD34D" stroke-width="0.5"/>

  <!-- Rule grid: 2x3 -->
  <rect x="555" y="420" width="90" height="36" rx="2" fill="#F3F0FF" stroke="#7B61FF"/>
  <text x="600" y="443" text-anchor="middle" font-size="10" font-weight="bold" fill="#5B21B6">Reorder</text>

  <rect x="652" y="420" width="90" height="36" rx="2" fill="#F3F0FF" stroke="#7B61FF"/>
  <text x="697" y="443" text-anchor="middle" font-size="10" font-weight="bold" fill="#5B21B6">Dedup</text>

  <rect x="749" y="420" width="90" height="36" rx="2" fill="#FFF7ED" stroke="#EA580C"/>
  <text x="794" y="439" text-anchor="middle" font-size="10" font-weight="bold" fill="#C2410C">Prefetch</text>
  <text x="794" y="451" text-anchor="middle" font-size="8" fill="#EA580C">Phase 3</text>

  <rect x="555" y="464" width="90" height="36" rx="2" fill="#FFF7ED" stroke="#EA580C"/>
  <text x="600" y="483" text-anchor="middle" font-size="10" font-weight="bold" fill="#C2410C">Prune</text>
  <text x="600" y="495" text-anchor="middle" font-size="8" fill="#EA580C">Phase 3</text>

  <rect x="652" y="464" width="90" height="36" rx="2" fill="#FFF7ED" stroke="#EA580C"/>
  <text x="697" y="483" text-anchor="middle" font-size="10" font-weight="bold" fill="#C2410C">Merge</text>
  <text x="697" y="495" text-anchor="middle" font-size="8" fill="#EA580C">Phase 3</text>

  <rect x="749" y="464" width="90" height="36" rx="2" fill="#f8f8f8" stroke="#ccc" stroke-dasharray="4 2"/>
  <text x="794" y="487" text-anchor="middle" font-size="10" fill="#999">Custom</text>

  <!-- EXPLAIN bar -->
  <rect x="55" y="535" width="795" height="45" rx="2" fill="#1E1B4B" stroke="#1E1B4B"/>
  <text x="70" y="555" font-family="monospace" font-size="11" fill="#C4B5FD">cp.explain(messages)</text>
  <text x="70" y="570" font-family="monospace" font-size="10" fill="#A5B4FC">Input: 47,832 tok → Output: 31,206 tok → Saving: 34.8%</text>
  <text x="750" y="555" font-size="9" fill="#818CF8" text-anchor="end">= SQL EXPLAIN</text>

  <!-- Context Block Parser detail -->
  <rect x="55" y="600" width="795" height="178" rx="2" fill="#f9f9f9" stroke="#aaa" stroke-dasharray="5 3"/>
  <text x="70" y="618" font-weight="bold" fill="#333" font-size="11">CONTEXT BLOCK PARSER (Detail)</text>

  <!-- Block types -->
  <rect x="70" y="630" width="110" height="40" rx="2" fill="#E0E7FF" stroke="#6366F1"/>
  <text x="125" y="655" text-anchor="middle" font-size="10" font-weight="bold" fill="#4338CA">skill</text>

  <rect x="190" y="630" width="110" height="40" rx="2" fill="#DBEAFE" stroke="#3B82F6"/>
  <text x="245" y="655" text-anchor="middle" font-size="10" font-weight="bold" fill="#1D4ED8">memory</text>

  <rect x="310" y="630" width="110" height="40" rx="2" fill="#D1FAE5" stroke="#10B981"/>
  <text x="365" y="655" text-anchor="middle" font-size="10" font-weight="bold" fill="#065F46">searched</text>

  <rect x="430" y="630" width="110" height="40" rx="2" fill="#FEF3C7" stroke="#F59E0B"/>
  <text x="485" y="655" text-anchor="middle" font-size="10" font-weight="bold" fill="#92400E">file_based</text>

  <!-- Decomposition tree example -->
  <text x="580" y="645" font-size="10" fill="#555">Decomposition tree:</text>
  <text x="580" y="660" font-family="monospace" font-size="9" fill="#666">skill:whisper</text>
  <text x="600" y="673" font-family="monospace" font-size="9" fill="#888">├ §Overview  f=12</text>
  <text x="600" y="686" font-family="monospace" font-size="9" fill="#888">├ §Usage     f=15</text>
  <text x="600" y="699" font-family="monospace" font-size="9" fill="#888">└ §Advanced  f=0</text>

  <!-- Usage tracking -->
  <text x="70" y="690" font-size="10" fill="#555">Each block tracks:</text>
  <text x="70" y="704" font-family="monospace" font-size="9" fill="#666">block_id | type | frequency | last_used | co_occurrence</text>
  <text x="70" y="717" font-size="10" fill="#555">Detection: regex + tag matching, zero LLM calls, O(n) scan</text>

  <!-- Markmap export -->
  <text x="70" y="735" font-family="monospace" font-size="9" fill="#7B61FF">→ export: to_markmap() for markmap.js.org/repl</text>
  <text x="70" y="750" font-family="monospace" font-size="9" fill="#7B61FF">→ export: to_json() for usage dashboard</text>
  <text x="70" y="765" font-family="monospace" font-size="9" fill="#7B61FF">→ persist: ~/.contextpilot/block_usage.json</text>

  <!-- End optimizer core -->

  <line x1="450" y1="788" x2="450" y2="818" stroke="#555" stroke-width="1.5" marker-end="url(#a)"/>

  <!-- ═══ Execution Engine ═══ -->
  <rect x="40" y="818" width="820" height="130" rx="3" fill="none" stroke="#22C55E" stroke-width="2"/>
  <text x="55" y="837" font-weight="bold" fill="#15803D" font-size="11">EXECUTION ENGINE</text>
  <text x="845" y="837" text-anchor="end" fill="#999" font-size="10">engine/ — Phase 0 reorg</text>

  <rect x="55" y="848" width="185" height="85" rx="2" fill="#F0FDF4" stroke="#22C55E"/>
  <text x="147" y="868" text-anchor="middle" font-weight="bold" fill="#333">Cache Index</text>
  <text x="147" y="882" text-anchor="middle" font-size="10" fill="#666">Hierarchical clustering</text>
  <text x="147" y="896" text-anchor="middle" font-size="10" fill="#666">Prefix tree, live search</text>
  <text x="147" y="910" text-anchor="middle" font-size="10" fill="#666">Incremental insert</text>
  <text x="147" y="924" text-anchor="middle" font-size="9" fill="#999">cache_index.py, tree.py</text>

  <rect x="255" y="848" width="185" height="85" rx="2" fill="#F0FDF4" stroke="#22C55E"/>
  <text x="347" y="868" text-anchor="middle" font-weight="bold" fill="#333">Scheduler</text>
  <text x="347" y="882" text-anchor="middle" font-size="10" fill="#666">Intra + Inter ordering</text>
  <text x="347" y="896" text-anchor="middle" font-size="10" fill="#666">Search-path grouping</text>
  <text x="347" y="910" text-anchor="middle" font-size="10" fill="#666">Batch execution order</text>
  <text x="347" y="924" text-anchor="middle" font-size="9" fill="#999">scheduler.py</text>

  <rect x="455" y="848" width="185" height="85" rx="2" fill="#F0FDF4" stroke="#22C55E"/>
  <text x="547" y="868" text-anchor="middle" font-weight="bold" fill="#333">Eviction Manager</text>
  <text x="547" y="882" text-anchor="middle" font-size="10" fill="#666">LRU + callback-driven</text>
  <text x="547" y="896" text-anchor="middle" font-size="10" fill="#666">SGLang/vLLM sync</text>
  <text x="547" y="910" text-anchor="middle" font-size="10" fill="#666">Auto tree pruning</text>
  <text x="547" y="924" text-anchor="middle" font-size="9" fill="#999">eviction.py, metadata.py</text>

  <rect x="655" y="848" width="195" height="85" rx="2" fill="#F0FDF4" stroke="#22C55E"/>
  <text x="752" y="868" text-anchor="middle" font-weight="bold" fill="#333">Pipeline (RAG)</text>
  <text x="752" y="882" text-anchor="middle" font-size="10" fill="#666">RAG pipeline, multi-turn</text>
  <text x="752" y="896" text-anchor="middle" font-size="10" fill="#666">Internally uses optimizer</text>
  <text x="752" y="910" text-anchor="middle" font-size="10" fill="#666">(kept, refactored later)</text>
  <text x="752" y="924" text-anchor="middle" font-size="9" fill="#999">pipeline/</text>

  <line x1="450" y1="948" x2="450" y2="978" stroke="#555" stroke-width="1.5" marker-end="url(#a)"/>

  <!-- ═══ LLM Backend ═══ -->
  <rect x="150" y="978" width="600" height="40" rx="3" fill="#f5f5f5" stroke="#aaa"/>
  <text x="450" y="997" text-anchor="middle" font-weight="bold" fill="#333">LLM Backend</text>
  <text x="450" y="1011" text-anchor="middle" font-size="10" fill="#888">OpenAI / Anthropic / SGLang / vLLM / llama.cpp</text>

  <!-- ═══ Refactoring Timeline ═══ -->
  <rect x="40" y="1045" width="820" height="135" rx="3" fill="none" stroke="#ddd"/>
  <text x="55" y="1065" font-size="12" font-weight="bold" fill="#333">Refactoring Timeline</text>

  <!-- Phase 0 -->
  <rect x="55" y="1078" width="150" height="42" rx="2" fill="#DBEAFE" stroke="#3B82F6" stroke-width="1.5"/>
  <text x="130" y="1095" text-anchor="middle" font-weight="bold" font-size="10" fill="#1E40AF">Phase 0</text>
  <text x="130" y="1110" text-anchor="middle" font-size="9" fill="#3B82F6">File reorg</text>
  <text x="130" y="1165" text-anchor="middle" font-size="8" fill="#3B82F6">NEXT</text>

  <line x1="205" y1="1099" x2="215" y2="1099" stroke="#aaa" stroke-width="1.5"/>

  <!-- Phase 1 -->
  <rect x="215" y="1078" width="150" height="42" rx="2" fill="#FFF7ED" stroke="#EA580C"/>
  <text x="290" y="1095" text-anchor="middle" font-weight="bold" font-size="10" fill="#C2410C">Phase 1</text>
  <text x="290" y="1110" text-anchor="middle" font-size="9" fill="#EA580C">Optimizer Core</text>
  <text x="290" y="1165" text-anchor="middle" font-size="8" fill="#aaa">PENDING</text>

  <line x1="365" y1="1099" x2="375" y2="1099" stroke="#aaa" stroke-width="1.5"/>

  <!-- Phase 2 -->
  <rect x="375" y="1078" width="150" height="42" rx="2" fill="#FFF7ED" stroke="#EA580C"/>
  <text x="450" y="1095" text-anchor="middle" font-weight="bold" font-size="10" fill="#C2410C">Phase 2</text>
  <text x="450" y="1110" text-anchor="middle" font-size="9" fill="#EA580C">Client Wrappers</text>
  <text x="450" y="1165" text-anchor="middle" font-size="8" fill="#aaa">PENDING</text>

  <line x1="525" y1="1099" x2="535" y2="1099" stroke="#aaa" stroke-width="1.5"/>

  <!-- Phase 3 -->
  <rect x="535" y="1078" width="150" height="42" rx="2" fill="#FFF7ED" stroke="#EA580C"/>
  <text x="610" y="1095" text-anchor="middle" font-weight="bold" font-size="10" fill="#C2410C">Phase 3</text>
  <text x="610" y="1110" text-anchor="middle" font-size="9" fill="#EA580C">Advanced Rules</text>
  <text x="610" y="1165" text-anchor="middle" font-size="8" fill="#aaa">PENDING</text>

  <line x1="685" y1="1099" x2="695" y2="1099" stroke="#aaa" stroke-width="1.5"/>

  <!-- Phase 4 -->
  <rect x="695" y="1078" width="150" height="42" rx="2" fill="#FFF7ED" stroke="#EA580C"/>
  <text x="770" y="1095" text-anchor="middle" font-weight="bold" font-size="10" fill="#C2410C">Phase 4</text>
  <text x="770" y="1110" text-anchor="middle" font-size="9" fill="#EA580C">Proxy Refactor</text>
  <text x="770" y="1165" text-anchor="middle" font-size="8" fill="#aaa">PENDING</text>

  <!-- Design done checkmark -->
  <text x="55" y="1145" font-size="9" fill="#15803D">Design: DONE</text>
  <text x="55" y="1160" font-size="9" fill="#15803D">docs/ + Notion page created</text>

  <!-- ═══ Package Structure ═══ -->
  <rect x="40" y="1195" width="820" height="180" rx="3" fill="none" stroke="#ddd"/>
  <text x="55" y="1215" font-size="12" font-weight="bold" fill="#333">Package Structure (Target)</text>

  <text x="55"  y="1235" font-family="monospace" font-size="9" fill="#333">contextpilot/</text>
  <text x="55"  y="1248" font-family="monospace" font-size="9" fill="#7B61FF">├── optimizer/           NEW: core.py, parser.py, planner.py, catalog.py, cost_model.py</text>
  <text x="55"  y="1261" font-family="monospace" font-size="9" fill="#7B61FF">│   └── rules/           NEW: base.py, reorder.py, dedup.py, prefetch.py, prune.py, merge.py</text>
  <text x="55"  y="1274" font-family="monospace" font-size="9" fill="#22C55E">├── engine/              MOVED: cache_index.py, tree.py, distance.py, scheduler.py, ...</text>
  <text x="55"  y="1287" font-family="monospace" font-size="9" fill="#4A90D9">├── proxy/               MOVED: server.py, interceptor.py</text>
  <text x="55"  y="1300" font-family="monospace" font-size="9" fill="#4A90D9">├── integrations/        MOVED: openai_client.py, anthropic_client.py, retrievers/, hooks/</text>
  <text x="55"  y="1313" font-family="monospace" font-size="9" fill="#888">├── pipeline/            KEPT: rag_pipeline.py, components.py</text>
  <text x="55"  y="1326" font-family="monospace" font-size="9" fill="#888">├── utils/               KEPT: eval_metrics.py, prompt_generator.py, tools.py</text>
  <text x="55"  y="1339" font-family="monospace" font-size="9" fill="#DC2626">├── _compat.py           NEW: old import paths → new locations</text>
  <text x="55"  y="1352" font-family="monospace" font-size="9" fill="#333">└── __init__.py          UPDATED: cp.optimize(), cp.explain(), cp.openai, cp.anthropic</text>

  <!-- Legend -->
  <rect x="40" y="1385" width="820" height="30" rx="3" fill="none" stroke="#eee"/>
  <rect x="55" y="1393" width="14" height="10" rx="1" fill="#F3F0FF" stroke="#7B61FF"/>
  <text x="75" y="1403" font-size="9" fill="#666">Existing (wrap)</text>
  <rect x="165" y="1393" width="14" height="10" rx="1" fill="#FFF7ED" stroke="#EA580C"/>
  <text x="185" y="1403" font-size="9" fill="#666">New</text>
  <rect x="230" y="1393" width="14" height="10" rx="1" fill="#f8f8f8" stroke="#ccc" stroke-dasharray="3 2"/>
  <text x="250" y="1403" font-size="9" fill="#666">Pluggable</text>
  <rect x="320" y="1393" width="14" height="10" rx="1" fill="#DBEAFE" stroke="#3B82F6"/>
  <text x="340" y="1403" font-size="9" fill="#666">Next step</text>
  <rect x="410" y="1393" width="14" height="10" rx="1" fill="#FEF2F2" stroke="#EF4444" stroke-dasharray="3 2"/>
  <text x="430" y="1403" font-size="9" fill="#666">Compat bridge</text>
</svg>
