<svg xmlns="http://www.w3.org/2000/svg" viewBox="0 0 950 680" font-family="Helvetica, Arial, sans-serif" font-size="12">
  <defs>
    <marker id="a" markerWidth="7" markerHeight="5" refX="7" refY="2.5" orient="auto">
      <polygon points="0 0,7 2.5,0 5" fill="#555"/>
    </marker>
  </defs>

  <rect width="950" height="680" fill="#fff"/>

  <!-- Title -->
  <text x="475" y="26" text-anchor="middle" font-size="16" font-weight="bold" fill="#222">Context Optimizer Architecture</text>
  <text x="475" y="43" text-anchor="middle" font-size="11" fill="#888">SQL Query Optimizer Analogy — Total overhead &lt;15ms, zero LLM calls</text>

  <!-- ═══════════════════ MAIN HORIZONTAL FLOW (y=55 - y=345) ═══════════════════ -->

  <!-- ── User App ── -->
  <rect x="20" y="165" width="65" height="42" rx="3" fill="#f5f5f5" stroke="#aaa"/>
  <text x="52" y="184" text-anchor="middle" font-size="10" font-weight="bold" fill="#333">User</text>
  <text x="52" y="196" text-anchor="middle" font-size="10" font-weight="bold" fill="#333">App</text>

  <line x1="85" y1="186" x2="104" y2="186" stroke="#555" stroke-width="1.5" marker-end="url(#a)"/>

  <!-- ── Integration Layer ── -->
  <rect x="106" y="55" width="108" height="255" rx="3" fill="none" stroke="#4A90D9" stroke-width="2"/>
  <text x="160" y="72" text-anchor="middle" font-weight="bold" fill="#4A90D9" font-size="10">INTEGRATION</text>

  <rect x="115" y="82" width="90" height="34" rx="2" fill="#EBF3FB" stroke="#4A90D9"/>
  <text x="160" y="103" text-anchor="middle" font-size="10" font-weight="bold" fill="#333">L0: Proxy</text>

  <rect x="115" y="122" width="90" height="34" rx="2" fill="#EBF3FB" stroke="#4A90D9"/>
  <text x="160" y="143" text-anchor="middle" font-size="10" font-weight="bold" fill="#333">L1: Wrapper</text>

  <rect x="115" y="162" width="90" height="34" rx="2" fill="#EBF3FB" stroke="#4A90D9"/>
  <text x="160" y="183" text-anchor="middle" font-size="10" font-weight="bold" fill="#333">L2: SDK</text>

  <rect x="115" y="202" width="90" height="34" rx="2" fill="#EBF3FB" stroke="#4A90D9"/>
  <text x="160" y="223" text-anchor="middle" font-size="10" font-weight="bold" fill="#333">L3: Hook</text>

  <text x="160" y="262" text-anchor="middle" font-size="9" fill="#4A90D9">Phase 2</text>

  <!-- _compat.py -->
  <rect x="106" y="312" width="108" height="14" rx="2" fill="#FEF2F2" stroke="#EF4444" stroke-dasharray="4 2"/>
  <text x="160" y="322" text-anchor="middle" font-size="7" fill="#DC2626">_compat.py (Phase 0)</text>

  <line x1="214" y1="186" x2="233" y2="186" stroke="#555" stroke-width="1.5" marker-end="url(#a)"/>

  <!-- ── Optimizer Core ── -->
  <rect x="235" y="55" width="448" height="290" rx="3" fill="none" stroke="#7B61FF" stroke-width="2"/>
  <text x="250" y="72" font-weight="bold" fill="#7B61FF" font-size="10">OPTIMIZER CORE</text>
  <text x="668" y="72" text-anchor="end" fill="#999" font-size="9">Phase 1</text>

  <!-- Pipeline row -->
  <rect x="248" y="82" width="100" height="40" rx="2" fill="#F3F0FF" stroke="#7B61FF"/>
  <text x="298" y="98" text-anchor="middle" font-weight="bold" fill="#333" font-size="10">PARSER</text>
  <text x="298" y="112" text-anchor="middle" font-size="8" fill="#999">&lt;5ms</text>

  <line x1="348" y1="102" x2="360" y2="102" stroke="#7B61FF" stroke-width="1.5" marker-end="url(#a)"/>

  <rect x="363" y="82" width="100" height="40" rx="2" fill="#F3F0FF" stroke="#7B61FF"/>
  <text x="413" y="98" text-anchor="middle" font-weight="bold" fill="#333" font-size="10">ANALYZER</text>
  <text x="413" y="112" text-anchor="middle" font-size="8" fill="#999">&lt;1ms</text>

  <line x1="463" y1="102" x2="475" y2="102" stroke="#7B61FF" stroke-width="1.5" marker-end="url(#a)"/>

  <rect x="478" y="82" width="100" height="40" rx="2" fill="#F3F0FF" stroke="#7B61FF"/>
  <text x="528" y="98" text-anchor="middle" font-weight="bold" fill="#333" font-size="10">PLANNER</text>
  <text x="528" y="112" text-anchor="middle" font-size="8" fill="#999">&lt;2ms</text>

  <line x1="578" y1="102" x2="590" y2="102" stroke="#7B61FF" stroke-width="1.5" marker-end="url(#a)"/>

  <rect x="593" y="82" width="78" height="40" rx="2" fill="#F3F0FF" stroke="#7B61FF"/>
  <text x="632" y="98" text-anchor="middle" font-weight="bold" fill="#333" font-size="10">EXEC</text>
  <text x="632" y="112" text-anchor="middle" font-size="8" fill="#999">&lt;5ms</text>

  <!-- Dashed lines to supporting -->
  <line x1="298" y1="122" x2="298" y2="137" stroke="#bbb" stroke-width="1" stroke-dasharray="4 3"/>
  <line x1="413" y1="122" x2="413" y2="137" stroke="#bbb" stroke-width="1" stroke-dasharray="4 3"/>
  <line x1="580" y1="122" x2="580" y2="137" stroke="#bbb" stroke-width="1" stroke-dasharray="4 3"/>

  <!-- Supporting: Catalog -->
  <rect x="248" y="137" width="140" height="90" rx="2" fill="#FFFBEB" stroke="#D97706"/>
  <text x="318" y="153" text-anchor="middle" font-weight="bold" fill="#92400E" font-size="10">CATALOG</text>
  <line x1="255" y1="158" x2="381" y2="158" stroke="#FCD34D" stroke-width="0.5"/>
  <text x="255" y="172" font-size="9" fill="#555">Skill Registry</text>
  <text x="255" y="185" font-size="9" fill="#555">Usage Stats</text>
  <text x="255" y="198" font-size="9" fill="#555">Block Registry</text>
  <text x="255" y="218" font-size="8" fill="#888">catalog.py</text>

  <!-- Supporting: Cost Model -->
  <rect x="396" y="137" width="140" height="90" rx="2" fill="#FFFBEB" stroke="#D97706"/>
  <text x="466" y="153" text-anchor="middle" font-weight="bold" fill="#92400E" font-size="10">COST MODEL</text>
  <line x1="403" y1="158" x2="529" y2="158" stroke="#FCD34D" stroke-width="0.5"/>
  <text x="403" y="172" font-size="9" fill="#555">Token estimation</text>
  <text x="403" y="185" font-size="9" fill="#555">Cache benefit</text>
  <text x="403" y="198" font-size="9" fill="#555">Risk assessment</text>
  <text x="403" y="218" font-size="8" fill="#888">cost_model.py</text>

  <!-- Supporting: Rewrite Rules -->
  <rect x="544" y="137" width="128" height="90" rx="2" fill="#FFFBEB" stroke="#D97706"/>
  <text x="608" y="153" text-anchor="middle" font-weight="bold" fill="#92400E" font-size="10">RULES</text>
  <line x1="551" y1="158" x2="665" y2="158" stroke="#FCD34D" stroke-width="0.5"/>

  <!-- Rule grid 2x3 -->
  <rect x="551" y="164" width="55" height="22" rx="2" fill="#F3F0FF" stroke="#7B61FF"/>
  <text x="578" y="179" text-anchor="middle" font-size="8" font-weight="bold" fill="#5B21B6">Reorder</text>

  <rect x="610" y="164" width="55" height="22" rx="2" fill="#F3F0FF" stroke="#7B61FF"/>
  <text x="637" y="179" text-anchor="middle" font-size="8" font-weight="bold" fill="#5B21B6">Dedup</text>

  <rect x="551" y="190" width="55" height="22" rx="2" fill="#FFF7ED" stroke="#EA580C"/>
  <text x="578" y="205" text-anchor="middle" font-size="8" font-weight="bold" fill="#C2410C">Prefetch</text>

  <rect x="610" y="190" width="55" height="22" rx="2" fill="#FFF7ED" stroke="#EA580C"/>
  <text x="637" y="205" text-anchor="middle" font-size="8" font-weight="bold" fill="#C2410C">Prune</text>

  <text x="608" y="228" text-anchor="middle" font-size="8" fill="#888">Merge, Custom...</text>

  <!-- EXPLAIN bar -->
  <rect x="248" y="237" width="424" height="26" rx="2" fill="#1E1B4B"/>
  <text x="258" y="254" font-family="monospace" font-size="9" fill="#C4B5FD">cp.explain() → 47,832→31,206 tok (34.8%)</text>
  <text x="660" y="254" text-anchor="end" font-size="8" fill="#818CF8">= SQL EXPLAIN</text>

  <!-- Block Parser compact -->
  <rect x="248" y="270" width="424" height="66" rx="2" fill="#f9f9f9" stroke="#aaa" stroke-dasharray="5 3"/>
  <text x="258" y="286" font-weight="bold" fill="#333" font-size="10">BLOCK PARSER</text>

  <rect x="258" y="294" width="58" height="22" rx="2" fill="#E0E7FF" stroke="#6366F1"/>
  <text x="287" y="309" text-anchor="middle" font-size="8" font-weight="bold" fill="#4338CA">skill</text>

  <rect x="322" y="294" width="58" height="22" rx="2" fill="#DBEAFE" stroke="#3B82F6"/>
  <text x="351" y="309" text-anchor="middle" font-size="8" font-weight="bold" fill="#1D4ED8">memory</text>

  <rect x="386" y="294" width="58" height="22" rx="2" fill="#D1FAE5" stroke="#10B981"/>
  <text x="415" y="309" text-anchor="middle" font-size="8" font-weight="bold" fill="#065F46">searched</text>

  <rect x="450" y="294" width="58" height="22" rx="2" fill="#FEF3C7" stroke="#F59E0B"/>
  <text x="479" y="309" text-anchor="middle" font-size="8" font-weight="bold" fill="#92400E">file</text>

  <text x="258" y="330" font-size="8" fill="#888">Section decomp: skill:whisper → §Overview f=12, §Usage f=15, §Advanced f=0</text>

  <!-- Arrow Optimizer → Engine -->
  <line x1="683" y1="186" x2="702" y2="186" stroke="#555" stroke-width="1.5" marker-end="url(#a)"/>

  <!-- ── Execution Engine ── -->
  <rect x="704" y="55" width="148" height="255" rx="3" fill="none" stroke="#22C55E" stroke-width="2"/>
  <text x="778" y="72" text-anchor="middle" font-weight="bold" fill="#15803D" font-size="10">ENGINE</text>

  <rect x="714" y="82" width="128" height="42" rx="2" fill="#F0FDF4" stroke="#22C55E"/>
  <text x="778" y="100" text-anchor="middle" font-weight="bold" fill="#333" font-size="10">Cache Index</text>
  <text x="778" y="116" text-anchor="middle" font-size="8" fill="#666">Clustering + prefix tree</text>

  <rect x="714" y="130" width="128" height="42" rx="2" fill="#F0FDF4" stroke="#22C55E"/>
  <text x="778" y="148" text-anchor="middle" font-weight="bold" fill="#333" font-size="10">Scheduler</text>
  <text x="778" y="164" text-anchor="middle" font-size="8" fill="#666">Intra + Inter ordering</text>

  <rect x="714" y="178" width="128" height="42" rx="2" fill="#F0FDF4" stroke="#22C55E"/>
  <text x="778" y="196" text-anchor="middle" font-weight="bold" fill="#333" font-size="10">Eviction</text>
  <text x="778" y="212" text-anchor="middle" font-size="8" fill="#666">LRU + engine sync</text>

  <rect x="714" y="226" width="128" height="42" rx="2" fill="#F0FDF4" stroke="#22C55E"/>
  <text x="778" y="244" text-anchor="middle" font-weight="bold" fill="#333" font-size="10">Pipeline</text>
  <text x="778" y="260" text-anchor="middle" font-size="8" fill="#666">RAG (kept)</text>

  <text x="778" y="295" text-anchor="middle" font-size="9" fill="#22C55E">Phase 0 reorg</text>

  <!-- Arrow Engine → LLM -->
  <line x1="852" y1="186" x2="871" y2="186" stroke="#555" stroke-width="1.5" marker-end="url(#a)"/>

  <!-- ── LLM Backend ── -->
  <rect x="873" y="148" width="65" height="76" rx="3" fill="#f5f5f5" stroke="#aaa"/>
  <text x="905" y="177" text-anchor="middle" font-weight="bold" fill="#333" font-size="10">LLM</text>
  <text x="905" y="192" text-anchor="middle" font-size="7" fill="#888">OpenAI</text>
  <text x="905" y="202" text-anchor="middle" font-size="7" fill="#888">Anthropic</text>
  <text x="905" y="212" text-anchor="middle" font-size="7" fill="#888">SGLang</text>

  <!-- ═══════════════════ TIMELINE (y=355) ═══════════════════ -->
  <rect x="20" y="355" width="910" height="80" rx="3" fill="none" stroke="#ddd"/>
  <text x="35" y="373" font-size="12" font-weight="bold" fill="#333">Refactoring Timeline</text>
  <text x="35" y="388" font-size="9" fill="#15803D">Design: DONE</text>

  <rect x="35" y="398" width="165" height="26" rx="2" fill="#DBEAFE" stroke="#3B82F6" stroke-width="1.5"/>
  <text x="117" y="415" text-anchor="middle" font-weight="bold" font-size="9" fill="#1E40AF">Phase 0: File Reorg — NEXT</text>

  <rect x="208" y="398" width="165" height="26" rx="2" fill="#FFF7ED" stroke="#EA580C"/>
  <text x="290" y="415" text-anchor="middle" font-weight="bold" font-size="9" fill="#C2410C">Phase 1: Optimizer Core</text>

  <rect x="381" y="398" width="165" height="26" rx="2" fill="#FFF7ED" stroke="#EA580C"/>
  <text x="463" y="415" text-anchor="middle" font-weight="bold" font-size="9" fill="#C2410C">Phase 2: Wrappers</text>

  <rect x="554" y="398" width="165" height="26" rx="2" fill="#FFF7ED" stroke="#EA580C"/>
  <text x="636" y="415" text-anchor="middle" font-weight="bold" font-size="9" fill="#C2410C">Phase 3: Adv. Rules</text>

  <rect x="727" y="398" width="190" height="26" rx="2" fill="#FFF7ED" stroke="#EA580C"/>
  <text x="822" y="415" text-anchor="middle" font-weight="bold" font-size="9" fill="#C2410C">Phase 4: Proxy Refactor</text>

  <!-- ═══════════════════ PACKAGE STRUCTURE (y=450) ═══════════════════ -->
  <rect x="20" y="450" width="910" height="140" rx="3" fill="none" stroke="#ddd"/>
  <text x="35" y="470" font-size="12" font-weight="bold" fill="#333">Package Structure (Target)</text>

  <text x="35" y="490" font-family="monospace" font-size="10" fill="#333">contextpilot/</text>
  <text x="35" y="505" font-family="monospace" font-size="10" fill="#7B61FF">  optimizer/        NEW: core, parser, planner, catalog, cost_model, rules/*</text>
  <text x="35" y="520" font-family="monospace" font-size="10" fill="#22C55E">  engine/           MOVED: cache_index, tree, distance, scheduler, eviction, metadata</text>
  <text x="35" y="535" font-family="monospace" font-size="10" fill="#4A90D9">  proxy/            MOVED: server, interceptor, http_client</text>
  <text x="35" y="550" font-family="monospace" font-size="10" fill="#4A90D9">  integrations/     MOVED+NEW: openai_client, anthropic_client, retrievers/*, hooks/*</text>
  <text x="35" y="565" font-family="monospace" font-size="10" fill="#888">  pipeline/, utils/ KEPT  |  _compat.py NEW  |  __init__.py UPDATED</text>

  <!-- ═══════════════════ LEGEND ═══════════════════ -->
  <rect x="20" y="600" width="910" height="26" rx="3" fill="none" stroke="#eee"/>
  <rect x="35" y="607" width="12" height="12" rx="1" fill="#F3F0FF" stroke="#7B61FF"/>
  <text x="52" y="618" font-size="9" fill="#666">Existing</text>
  <rect x="110" y="607" width="12" height="12" rx="1" fill="#FFF7ED" stroke="#EA580C"/>
  <text x="127" y="618" font-size="9" fill="#666">New</text>
  <rect x="165" y="607" width="12" height="12" rx="1" fill="#DBEAFE" stroke="#3B82F6"/>
  <text x="182" y="618" font-size="9" fill="#666">Next step</text>
  <rect x="240" y="607" width="12" height="12" rx="1" fill="#FEF2F2" stroke="#EF4444" stroke-dasharray="3 2"/>
  <text x="257" y="618" font-size="9" fill="#666">Compat bridge</text>

  <!-- Data flow summary -->
  <text x="480" y="650" text-anchor="middle" font-family="monospace" font-size="10" fill="#555">messages → [Parse] → BlockTree → [Analyze] → [Plan] → [Execute] → optimized_msgs → LLM</text>
  <text x="480" y="668" text-anchor="middle" font-size="9" fill="#999">Performance: Parse(&lt;5ms) + Analyze(&lt;1ms) + Plan(&lt;2ms) + Execute(&lt;5ms) = &lt;15ms total</text>
</svg>
