<svg xmlns="http://www.w3.org/2000/svg" viewBox="0 0 720 860" font-family="Arial, Helvetica, sans-serif">
  <defs>
    <marker id="arr" viewBox="0 0 10 10" refX="9" refY="5" markerWidth="7" markerHeight="7" orient="auto-start-reverse">
      <path d="M 0 0 L 10 5 L 0 10 z" fill="#444"/>
    </marker>
    <marker id="arr-p" viewBox="0 0 10 10" refX="9" refY="5" markerWidth="7" markerHeight="7" orient="auto-start-reverse">
      <path d="M 0 0 L 10 5 L 0 10 z" fill="#7b1fa2"/>
    </marker>
  </defs>

  <!-- ====== USER INPUT ====== -->
  <rect x="170" y="15" width="380" height="52" rx="10" fill="#f5f5f5" stroke="#555" stroke-width="1.5"/>
  <text x="360" y="36" text-anchor="middle" font-size="15" font-weight="bold" fill="#222">User Input</text>
  <text x="360" y="55" text-anchor="middle" font-size="11" fill="#666">prompt + skills + search results + memory</text>

  <!-- ====== FORK ====== -->
  <line x1="360" y1="67" x2="360" y2="90" stroke="#444" stroke-width="1.5"/>
  <line x1="200" y1="90" x2="520" y2="90" stroke="#444" stroke-width="1.5"/>
  <line x1="200" y1="90" x2="200" y2="112" stroke="#444" stroke-width="1.5" marker-end="url(#arr)"/>
  <line x1="520" y1="90" x2="520" y2="112" stroke="#444" stroke-width="1.5" marker-end="url(#arr)"/>
  <rect x="325" y="78" width="70" height="18" rx="9" fill="#e3f2fd" stroke="#90caf9" stroke-width="1"/>
  <text x="360" y="92" text-anchor="middle" font-size="10" fill="#1565c0" font-weight="bold">parallel</text>

  <!-- ====== PARSER ====== -->
  <rect x="100" y="115" width="200" height="52" rx="10" fill="#e3f2fd" stroke="#1565c0" stroke-width="1.5"/>
  <text x="200" y="138" text-anchor="middle" font-size="14" font-weight="bold" fill="#1565c0">Parser</text>
  <text x="200" y="157" text-anchor="middle" font-size="10" fill="#555">hierarchical decomposition</text>

  <!-- ====== PREFETCH ====== -->
  <rect x="420" y="115" width="200" height="52" rx="10" fill="#e3f2fd" stroke="#1565c0" stroke-width="1.5"/>
  <text x="520" y="138" text-anchor="middle" font-size="14" font-weight="bold" fill="#1565c0">Prefetch</text>
  <text x="520" y="157" text-anchor="middle" font-size="10" fill="#555">predict from freq/metadata</text>

  <!-- ====== MERGE TO BLOCKTREE ====== -->
  <line x1="200" y1="167" x2="200" y2="195" stroke="#444" stroke-width="1.5"/>
  <line x1="520" y1="167" x2="520" y2="195" stroke="#444" stroke-width="1.5"/>
  <line x1="200" y1="195" x2="360" y2="195" stroke="#444" stroke-width="1.5"/>
  <line x1="520" y1="195" x2="360" y2="195" stroke="#444" stroke-width="1.5"/>
  <line x1="360" y1="195" x2="360" y2="218" stroke="#444" stroke-width="1.5" marker-end="url(#arr)"/>

  <!-- ====== BLOCKTREE ====== -->
  <rect x="140" y="221" width="440" height="75" rx="10" fill="#fff8e1" stroke="#f9a825" stroke-width="1.8"/>
  <text x="360" y="248" text-anchor="middle" font-size="15" font-weight="bold" fill="#e65100">BlockTree</text>
  <text x="360" y="268" text-anchor="middle" font-size="11" fill="#555">append-only: INSERT + READ only</text>
  <text x="360" y="285" text-anchor="middle" font-size="10" fill="#999">block_id  |  type  |  content_hash  |  freq  |  last_used  |  children[]</text>

  <!-- ====== ARROW TO OPTIMIZER ====== -->
  <line x1="360" y1="296" x2="360" y2="330" stroke="#444" stroke-width="1.5" marker-end="url(#arr)"/>

  <!-- ====== OPTIMIZER REGION ====== -->
  <rect x="110" y="333" width="500" height="340" rx="12" fill="none" stroke="#7b1fa2" stroke-width="1.5" stroke-dasharray="6,3"/>
  <text x="130" y="353" font-size="13" font-weight="bold" fill="#7b1fa2">Optimizer (4 primitives, sequential)</text>

  <!-- Phase 1: DEDUP -->
  <rect x="230" y="365" width="260" height="42" rx="8" fill="#f3e5f5" stroke="#7b1fa2" stroke-width="1.3"/>
  <text x="360" y="383" text-anchor="middle" font-size="13" font-weight="bold" fill="#6a1b9a">Dedup</text>
  <text x="360" y="399" text-anchor="middle" font-size="10" fill="#666">READ: filter duplicates</text>
  <text x="510" y="390" font-size="10" fill="#aaa">Phase 1</text>

  <!-- Arrow Dedup → Repartition -->
  <line x1="360" y1="407" x2="360" y2="428" stroke="#7b1fa2" stroke-width="1.2" marker-end="url(#arr-p)"/>

  <!-- Phase 2: REPARTITION -->
  <rect x="230" y="431" width="260" height="42" rx="8" fill="#f3e5f5" stroke="#7b1fa2" stroke-width="1.3"/>
  <text x="360" y="449" text-anchor="middle" font-size="13" font-weight="bold" fill="#6a1b9a">Repartition</text>
  <text x="360" y="465" text-anchor="middle" font-size="10" fill="#666">READ: split to parallel batches</text>
  <text x="510" y="456" font-size="10" fill="#aaa">Phase 2</text>

  <!-- Arrow Repartition → Add -->
  <line x1="360" y1="473" x2="360" y2="494" stroke="#7b1fa2" stroke-width="1.2" marker-end="url(#arr-p)"/>

  <!-- Phase 3: ADD -->
  <rect x="230" y="497" width="260" height="42" rx="8" fill="#f3e5f5" stroke="#7b1fa2" stroke-width="1.3"/>
  <text x="360" y="515" text-anchor="middle" font-size="13" font-weight="bold" fill="#6a1b9a">Add</text>
  <text x="360" y="531" text-anchor="middle" font-size="10" fill="#666">READ: prefix-hit blocks (cache-only)</text>
  <text x="510" y="522" font-size="10" fill="#aaa">Phase 3</text>

  <!-- Arrow Add → Reorder -->
  <line x1="360" y1="539" x2="360" y2="560" stroke="#7b1fa2" stroke-width="1.2" marker-end="url(#arr-p)"/>

  <!-- Phase 4: REORDER (LAST) -->
  <rect x="230" y="563" width="260" height="42" rx="8" fill="#fce4ec" stroke="#c62828" stroke-width="1.5"/>
  <text x="360" y="581" text-anchor="middle" font-size="13" font-weight="bold" fill="#c62828">Reorder</text>
  <text x="360" y="597" text-anchor="middle" font-size="10" fill="#666">READ: sort expanded set for KV prefix hit</text>
  <text x="510" y="586" font-size="10" fill="#c62828" font-weight="bold">LAST</text>

  <!-- ====== ARROW OUT ====== -->
  <line x1="360" y1="605" x2="360" y2="690" stroke="#444" stroke-width="1.5" marker-end="url(#arr)"/>

  <!-- ====== FINAL OUTPUT ====== -->
  <rect x="120" y="693" width="480" height="68" rx="10" fill="#e8f5e9" stroke="#2e7d32" stroke-width="1.8"/>
  <text x="360" y="717" text-anchor="middle" font-size="15" font-weight="bold" fill="#2e7d32">Optimized Output</text>
  <text x="360" y="737" text-anchor="middle" font-size="11" fill="#555">deduplicated, partitioned, expanded, prefix-ordered blocks</text>
  <text x="360" y="753" text-anchor="middle" font-size="10" fill="#2e7d32" font-weight="bold">prefix reusable by KV cache across requests</text>

</svg>
